<?xml version="1.0" encoding="UTF-8"?>
<svg id="_圖層_2" data-name="圖層 2" xmlns="http://www.w3.org/2000/svg" viewBox="0 0 18.98 24.2">
  <defs>
    <style>
      .cls-1 {
        fill: #fff;
      }

      .cls-2 {
        fill: #c30d23;
      }
    </style>
  </defs>
  <g id="_圖層_1-2" data-name="圖層 1">
    <g>
      <circle class="cls-1" cx="9.5" cy="9.73" r="7.17"/>
      <path class="cls-2" d="M18.76,7.58C17.83,2.94,14.08,.34,10.45,.04c-1.7-.14-3.35,.05-4.89,.78C1.89,2.58,.18,5.6,0,9.58c.02,.37,.03,.73,.07,1.08,.2,1.85,.83,3.53,1.98,4.99,1.29,1.63,2.63,3.22,3.95,4.83,.92,1.11,1.83,2.23,2.75,3.34,.42,.51,1.04,.5,1.48,0,.06-.06,.11-.13,.17-.2,2.04-2.48,4.08-4.97,6.13-7.44,2.09-2.52,2.88-5.4,2.24-8.6Zm-9.27,5.44c-2.03,0-3.71-1.68-3.72-3.7,0-2.05,1.69-3.75,3.74-3.74,2.02,0,3.69,1.7,3.69,3.73,0,2.02-1.7,3.71-3.72,3.71Z"/>
    </g>
  </g>
</svg>